<svg width="243" height="242" viewBox="0 0 243 242" fill="none" xmlns="http://www.w3.org/2000/svg">
<g clip-path="url(#clip0_355_221)">
<path d="M215.89 184.169L215.885 184.278L221.59 242H179.96L174.564 206.549L172.189 241.091L129.438 240.637L133.979 195.286L137.841 174.265V174.261L138.42 171.097H214.755L214.855 172.243L215.89 184.169Z" fill="#2F2E41"/>
<path d="M105.873 217.63C110.282 218.399 114.879 213.648 116.141 207.019C116.694 204.117 116.515 201.336 115.771 199.062L116.447 195.241L127.792 143.832C127.792 143.832 148.683 103.847 148.682 96.9054C148.682 89.9638 142.639 86.5596 142.639 86.5596L134.462 86.6327L108.819 146.558L104.201 190.84L103.454 196.915C101.919 198.792 100.727 201.334 100.175 204.236C98.9126 210.865 101.464 216.862 105.873 217.63Z" fill="#FFE4D7"/>
<path d="M189.052 61.7891L181.452 44.9724L156.751 49.0629L155.088 68.8482L189.052 61.7891Z" fill="#FFE4D7"/>
<path opacity="0.1" d="M189.052 61.7891L181.452 44.9724L156.751 49.0629L155.088 68.8482L189.052 61.7891Z" fill="black"/>
<path d="M242.729 96.786C242.729 96.786 225.153 65.4252 221.828 62.2437C220.348 60.8274 218.021 60.8077 215.894 61.2205L191.427 53.1536L183.134 48.6953L182.588 57.1773L155.362 61.853C155.513 56.6803 156.276 54.7128 156.276 54.7128L146.301 65.8798L126.825 74.9698L126.836 75.0517C125.406 75.529 124.051 76.3458 123.025 77.6969C119.225 82.6964 108.774 143.6 108.774 143.6L131.1 148.145L134.139 129.901L136.325 146.327L137.988 177.006C137.988 177.006 168.389 202.004 183.114 192.914C197.84 183.824 215.89 184.278 215.89 184.278L216.341 170.058C216.661 169.567 216.84 169.279 216.84 169.279L216.365 118.837V105.414C219.984 110.238 224.351 114.387 229.428 116.33C246.054 122.693 242.729 96.786 242.729 96.786Z" fill="#E6E6E6"/>
<path d="M166.519 52.0217C179.07 52.0217 189.243 42.2871 189.243 30.2789C189.243 18.2707 179.07 8.53613 166.519 8.53613C153.969 8.53613 143.795 18.2707 143.795 30.2789C143.795 42.2871 153.969 52.0217 166.519 52.0217Z" fill="#FFE4D7"/>
<path d="M182.821 36.4237C182.821 36.4237 184.797 29.8064 189.243 30.279C193.689 30.7517 194.677 26.9703 193.689 25.0797C192.701 23.189 190.725 13.7356 190.725 13.7356C190.725 13.7356 191.713 7.11823 185.785 6.17289C179.857 5.22756 177.881 4.28222 176.893 2.39154C175.905 0.500861 161.085 -1.38982 156.145 1.4462C151.205 4.28222 147.253 9.7235 143.795 11.2569C140.337 12.7903 137.373 15.6263 139.349 20.353C141.325 25.0797 144.191 34.3241 144.191 34.3241C144.191 34.3241 149.229 32.6424 150.217 35.4784C151.205 38.3144 147.253 34.5331 152.193 26.9703C157.133 19.4076 157.133 11.8449 165.037 14.6809C172.941 17.517 181.833 16.5716 180.845 22.2436C179.857 27.9157 182.821 36.4237 182.821 36.4237Z" fill="#2F2E41"/>
<path d="M181.432 208.792H8.85106C3.97049 208.792 0 204.993 0 200.323V112.607C0 107.938 3.97049 104.138 8.85106 104.138H181.432C186.312 104.138 190.283 107.938 190.283 112.607V200.323C190.283 204.993 186.312 208.792 181.432 208.792Z" fill="white"/>
<path d="M181.432 208.792H8.85106C3.97049 208.792 0 204.993 0 200.323V112.607C0 107.938 3.97049 104.138 8.85106 104.138H181.432C186.312 104.138 190.283 107.938 190.283 112.607V200.323C190.283 204.993 186.312 208.792 181.432 208.792ZM8.85106 105.552C4.78566 105.552 1.47806 108.717 1.47806 112.607V200.323C1.47806 204.213 4.78566 207.378 8.85106 207.378H181.432C185.497 207.378 188.805 204.213 188.805 200.323V112.607C188.805 108.717 185.497 105.552 181.432 105.552H8.85106Z" fill="#3F3D56"/>
<path d="M168.112 114.745C169.336 114.745 170.329 113.795 170.329 112.624C170.329 111.452 169.336 110.502 168.112 110.502C166.887 110.502 165.895 111.452 165.895 112.624C165.895 113.795 166.887 114.745 168.112 114.745Z" fill="#3F3D56"/>
<path d="M174.024 114.745C175.249 114.745 176.241 113.795 176.241 112.624C176.241 111.452 175.249 110.502 174.024 110.502C172.8 110.502 171.807 111.452 171.807 112.624C171.807 113.795 172.8 114.745 174.024 114.745Z" fill="#3F3D56"/>
<path d="M179.936 114.745C181.161 114.745 182.153 113.795 182.153 112.624C182.153 111.452 181.161 110.502 179.936 110.502C178.712 110.502 177.719 111.452 177.719 112.624C177.719 113.795 178.712 114.745 179.936 114.745Z" fill="#3F3D56"/>
<path d="M12.5636 146.919C11.9523 146.919 11.4551 147.395 11.4551 147.98C11.4551 148.265 11.5702 148.529 11.7791 148.723C11.9899 148.93 12.2659 149.04 12.5636 149.04H178.458C179.07 149.04 179.567 148.565 179.567 147.98C179.567 147.694 179.452 147.431 179.243 147.236C179.032 147.029 178.756 146.919 178.458 146.919H12.5636Z" fill="#E6E6E6"/>
<path d="M157.765 146.565V149.394H12.5635C12.1571 149.394 11.7875 149.238 11.5215 148.977C11.248 148.722 11.0854 148.369 11.0854 147.98C11.0854 147.202 11.7506 146.565 12.5635 146.565H157.765Z" fill="#7D8ED7"/>
<path d="M176.611 141.262H161.83C160.2 141.262 158.874 139.993 158.874 138.433C158.874 136.874 160.2 135.605 161.83 135.605H176.611C178.241 135.605 179.567 136.874 179.567 138.433C179.567 139.993 178.241 141.262 176.611 141.262Z" fill="#E6E6E6"/>
<path d="M79.7974 126.413H13.6719C12.042 126.413 10.7158 125.144 10.7158 123.584C10.7158 122.024 12.042 120.756 13.6719 120.756H79.7974C81.4274 120.756 82.7535 122.024 82.7535 123.584C82.7535 125.144 81.4274 126.413 79.7974 126.413Z" fill="#E6E6E6"/>
<path d="M12.5636 178.74C11.9523 178.74 11.4551 179.215 11.4551 179.8C11.4551 180.085 11.5702 180.349 11.7791 180.544C11.9899 180.75 12.2659 180.861 12.5636 180.861H178.458C179.07 180.861 179.567 180.385 179.567 179.8C179.567 179.515 179.452 179.251 179.243 179.056C179.032 178.85 178.756 178.74 178.458 178.74H12.5636Z" fill="#E6E6E6"/>
<path d="M100.86 178.386V181.214H12.5635C12.1571 181.214 11.7875 181.059 11.5215 180.797C11.248 180.542 11.0854 180.189 11.0854 179.8C11.0854 179.022 11.7506 178.386 12.5635 178.386H100.86Z" fill="#7D8ED7"/>
<path d="M176.611 173.082H161.83C160.2 173.082 158.874 171.814 158.874 170.254C158.874 168.694 160.2 167.426 161.83 167.426H176.611C178.241 167.426 179.567 168.694 179.567 170.254C179.567 171.814 178.241 173.082 176.611 173.082Z" fill="#E6E6E6"/>
<path d="M202.487 53.6954C215.27 53.6954 225.632 43.9891 225.632 32.0157C225.632 20.0423 215.27 10.3359 202.487 10.3359C189.704 10.3359 179.341 20.0423 179.341 32.0157C179.341 43.9891 189.704 53.6954 202.487 53.6954Z" fill="#7D8ED7"/>
<path d="M210.343 21.0803C207.261 26.449 204.18 31.8177 201.098 37.1864C199.134 33.8662 197.181 30.5402 195.212 27.2227C194.532 26.0769 192.683 27.1075 193.365 28.2561C195.647 32.1019 197.905 35.9604 200.188 39.8062C200.578 40.4638 201.649 40.479 202.035 39.8062C205.42 33.9087 208.805 28.0112 212.19 22.1137C212.854 20.9581 211.006 19.9238 210.343 21.0803Z" fill="white"/>
<path d="M234.438 89.161L211.377 78.6059C211.377 78.6059 210.451 71.5412 206.126 69.0214C205.391 67.3431 204.545 65.4994 203.777 64.0385C201.877 60.4257 204.727 53.6082 202.352 53.6082C199.977 53.6082 196.466 60.7782 196.652 62.6982C196.794 64.1722 198.068 66.7455 198.331 68.9981C195.434 70.0432 193.098 71.8346 191.562 73.2609C190.232 74.4952 189.738 76.3368 190.258 78.0381C191.764 82.9681 195.527 93.15 200.927 93.15C208.052 93.15 209.952 91.7865 209.952 91.7865C209.952 91.7865 224.678 109.512 235.603 110.876C246.528 112.239 234.438 89.161 234.438 89.161Z" fill="#FFE4D7"/>
</g>
<defs>
<clipPath id="clip0_355_221">
<rect width="243" height="242" fill="white"/>
</clipPath>
</defs>
</svg>
